<?xml version="1.0" encoding="utf-8"?>
<!-- Generator: Adobe Illustrator 25.2.0, SVG Export Plug-In . SVG Version: 6.00 Build 0)  -->
<svg version="1.1" id="Layer_1" xmlns="http://www.w3.org/2000/svg" xmlns:xlink="http://www.w3.org/1999/xlink" x="0px" y="0px"
	 viewBox="0 0 595.28 841.89" style="enable-background:new 0 0 595.28 841.89;" xml:space="preserve">
<style type="text/css">
	.st0{fill:#020203;}
	.st1{fill:#C2C1C1;}
	.st2{fill:#FFFFFF;}
	.st3{fill:#F3921B;}
</style>
<g>
	<path class="st0" d="M356.98,394.16c-15.58,1.24-33.92-10.81-34.46-30.31v-0.12c-0.47-19.95,19.77-33.93,36.94-30.35
		c4.69,0.98,8.87,1.84,12.23,2.9c-4.35-17.89-13.57-33.86-26.17-46.46c-17.91-17.92-42.66-29-70-29c-42.53,0-78.79,26.81-92.8,64.46
		c-4.01,10.75-6.2,22.39-6.2,34.54v219.7c13.74,0.68,28.35-1.11,43-7c0.17-0.06,0.33-0.13,0.5-0.2c34.32-14.01,51.92-43.63,55-49
		c0.1-0.17,0.19-0.33,0.28-0.5c19.99-35.25,6.89-57.78,20.72-80.5c9.1-14.94,29.61-29.59,78.5-32.37v-19.58
		C369.69,392.12,363.71,393.63,356.98,394.16z M271.02,366.82c-15.19,0-27.5-12.09-27.5-27c0-14.91,12.31-27,27.5-27
		s27.5,12.09,27.5,27C298.52,354.73,286.21,366.82,271.02,366.82z"/>
	<ellipse class="st0" cx="271.02" cy="339.82" rx="27.5" ry="27"/>
	<path class="st0" d="M374.52,359.82v30.55c-4.83,1.75-10.81,3.26-17.54,3.79c-15.58,1.24-33.92-10.81-34.46-30.31v-0.12
		c-0.47-19.95,19.77-33.93,36.94-30.35c4.69,0.98,8.87,1.84,12.23,2.9C373.54,343.82,374.52,351.71,374.52,359.82z"/>
	<path class="st1" d="M374.52,409.95v6.67c0,0.98-0.03,1.95-0.1,2.91c0.07,1.42,0.1,2.85,0.1,4.29c0,54.68-44.32,99-99,99h-0.22
		c19.99-35.25,6.89-57.78,20.72-80.5C305.12,427.38,325.63,412.73,374.52,409.95z"/>
	<g>
		<ellipse class="st2" cx="271.02" cy="339.82" rx="27.5" ry="27"/>
		<ellipse class="st0" cx="270.63" cy="339.43" rx="13.55" ry="13.3"/>
	</g>
	<g>
		<path class="st3" d="M419.08,363.41c-4.86,3.1-9.7,6.21-14.56,9.32c-5.88,3.77-11.78,7.55-17.67,11.32
			c-1.67,1.4-6.04,4.06-12.33,6.32c-4.83,1.75-10.81,3.26-17.54,3.79c-15.58,1.24-33.92-10.81-34.46-30.31v-0.12
			c-0.47-19.95,19.77-33.93,36.94-30.35c4.69,0.98,8.87,1.84,12.23,2.9c1.76,0.56,3.28,1.18,4.54,1.9
			C392.67,346.12,405.25,354.9,419.08,363.41z"/>
	</g>
</g>
</svg>
