<?xml version="1.0" encoding="utf-8"?>
<!-- Generator: Adobe Illustrator 25.2.3, SVG Export Plug-In . SVG Version: 6.00 Build 0)  -->
<svg version="1.1" id="Layer_1" xmlns="http://www.w3.org/2000/svg" xmlns:xlink="http://www.w3.org/1999/xlink" x="0px" y="0px"
	 viewBox="0 0 339.9 159.9" style="enable-background:new 0 0 339.9 159.9;" xml:space="preserve">
<g id="Layer_1_1_">
</g>
<g id="Layer_2_1_">
	<g>
		<path d="M316,30.5c-1.4-2-3.7-3.2-6.1-3.2h-46.5V7.5c0-4.1-3.4-7.5-7.5-7.5H87.4c-4.1,0-7.5,3.4-7.5,7.5v121.2
			c0,4.1,3.4,7.5,7.5,7.5h21.2c3.9,13.6,16.5,23.7,31.3,23.7s27.4-10,31.3-23.7h83.1c3.9,13.6,16.5,23.7,31.3,23.7
			s27.4-10,31.3-23.7h15.5c4.1,0,7.5-3.4,7.5-7.5V67c0-1.6-0.5-3.1-1.4-4.3L316,30.5z M325,69.2h-33.6V42.4h14.7L325,69.2z
			 M94.9,15.1h153.5v106.2h-76.5c-2.9-15.1-16.1-26.5-32-26.5s-29.2,11.4-32,26.5h-13L94.9,15.1L94.9,15.1z M139.9,144.9
			c-9.7,0-17.6-7.9-17.6-17.6s7.9-17.6,17.6-17.6s17.6,7.9,17.6,17.6S149.6,144.9,139.9,144.9z M285.7,144.9
			c-9.7,0-17.6-7.9-17.6-17.6s7.9-17.6,17.6-17.6s17.6,7.9,17.6,17.6S295.4,144.9,285.7,144.9z M317.7,121.3
			c-2.9-15.1-16.1-26.5-32-26.5c-8.6,0-16.5,3.4-22.3,8.9V42.4h12.9v34.3c0,4.1,3.4,7.5,7.5,7.5h41.3v37.1H317.7z"/>
		<path d="M7.8,15.1h53.5c4.1,0,7.5-3.4,7.5-7.5s-3.4-7.5-7.5-7.5H7.8c-4.1,0-7.5,3.4-7.5,7.5S3.7,15.1,7.8,15.1z"/>
		<path d="M61.3,27.4H20.1c-4.1,0-7.5,3.4-7.5,7.5s3.4,7.5,7.5,7.5h41.2c4.1,0,7.5-3.4,7.5-7.5S65.5,27.4,61.3,27.4z"/>
		<path d="M61.3,54.7h-26c-4.1,0-7.5,3.4-7.5,7.5s3.4,7.5,7.5,7.5h26c4.1,0,7.5-3.4,7.5-7.5S65.5,54.7,61.3,54.7z"/>
		<path d="M61.3,82h-9c-4.1,0-7.5,3.4-7.5,7.5s3.4,7.5,7.5,7.5h9c4.1,0,7.5-3.4,7.5-7.5S65.5,82,61.3,82z"/>
	</g>
</g>
</svg>
